<mxfile host="app.diagrams.net" modified="2022-11-14T15:18:48.699Z" agent="5.0 (X11; Linux x86_64) AppleWebKit/537.36 (KHTML, like Gecko) Chrome/107.0.0.0 Safari/537.36" etag="RWfdwnQ9RDt0AU69iavm" version="20.5.3" type="github">
  <diagram id="9AL0e-qM06q9D_0BJLEs" name="Page-1">
    <mxGraphModel dx="1590" dy="832" grid="1" gridSize="5" guides="1" tooltips="1" connect="1" arrows="1" fold="1" page="1" pageScale="1" pageWidth="1169" pageHeight="827" math="0" shadow="0">
      <root>
        <mxCell id="0" />
        <mxCell id="1" parent="0" />
        <mxCell id="PSsWQGHh_uAdmonaR9B--28" value="" style="sketch=0;points=[[0,0,0],[0.25,0,0],[0.5,0,0],[0.75,0,0],[1,0,0],[0,1,0],[0.25,1,0],[0.5,1,0],[0.75,1,0],[1,1,0],[0,0.25,0],[0,0.5,0],[0,0.75,0],[1,0.25,0],[1,0.5,0],[1,0.75,0]];outlineConnect=0;fontColor=#232F3E;gradientColor=#945DF2;gradientDirection=north;fillColor=#5A30B5;strokeColor=#ffffff;dashed=0;verticalLabelPosition=bottom;verticalAlign=top;align=center;html=1;fontSize=12;fontStyle=0;aspect=fixed;shape=mxgraph.aws4.resourceIcon;resIcon=mxgraph.aws4.route_53;" parent="1" vertex="1">
          <mxGeometry x="560" y="20" width="78" height="78" as="geometry" />
        </mxCell>
        <mxCell id="bZPf7hXfJWl-ffso0nt_-1" value="Region" style="points=[[0,0],[0.25,0],[0.5,0],[0.75,0],[1,0],[1,0.25],[1,0.5],[1,0.75],[1,1],[0.75,1],[0.5,1],[0.25,1],[0,1],[0,0.75],[0,0.5],[0,0.25]];outlineConnect=0;gradientColor=none;html=1;whiteSpace=wrap;fontSize=12;fontStyle=0;container=1;pointerEvents=0;collapsible=0;recursiveResize=0;shape=mxgraph.aws4.group;grIcon=mxgraph.aws4.group_region;strokeColor=#147EBA;fillColor=none;verticalAlign=top;align=left;spacingLeft=30;fontColor=#147EBA;dashed=1;" parent="1" vertex="1">
          <mxGeometry x="40" y="160" width="540" height="540" as="geometry" />
        </mxCell>
        <mxCell id="bZPf7hXfJWl-ffso0nt_-3" value="VPC" style="points=[[0,0],[0.25,0],[0.5,0],[0.75,0],[1,0],[1,0.25],[1,0.5],[1,0.75],[1,1],[0.75,1],[0.5,1],[0.25,1],[0,1],[0,0.75],[0,0.5],[0,0.25]];outlineConnect=0;gradientColor=none;html=1;whiteSpace=wrap;fontSize=12;fontStyle=0;container=1;pointerEvents=0;collapsible=0;recursiveResize=0;shape=mxgraph.aws4.group;grIcon=mxgraph.aws4.group_vpc;strokeColor=#248814;fillColor=none;verticalAlign=top;align=left;spacingLeft=30;fontColor=#AAB7B8;dashed=0;" parent="bZPf7hXfJWl-ffso0nt_-1" vertex="1">
          <mxGeometry x="20" y="40" width="500" height="480" as="geometry" />
        </mxCell>
        <mxCell id="bZPf7hXfJWl-ffso0nt_-5" value="Availability Zone" style="fillColor=none;strokeColor=#147EBA;dashed=1;verticalAlign=top;fontStyle=0;fontColor=#147EBA;" parent="bZPf7hXfJWl-ffso0nt_-3" vertex="1">
          <mxGeometry x="20" y="120" width="220" height="340" as="geometry" />
        </mxCell>
        <mxCell id="bZPf7hXfJWl-ffso0nt_-6" value="Availability Zone" style="fillColor=none;strokeColor=#147EBA;dashed=1;verticalAlign=top;fontStyle=0;fontColor=#147EBA;" parent="bZPf7hXfJWl-ffso0nt_-3" vertex="1">
          <mxGeometry x="260" y="120" width="220" height="340" as="geometry" />
        </mxCell>
        <mxCell id="bZPf7hXfJWl-ffso0nt_-9" value="" style="outlineConnect=0;dashed=0;verticalLabelPosition=bottom;verticalAlign=top;align=center;html=1;shape=mxgraph.aws3.application_load_balancer;fillColor=#F58536;gradientColor=none;" parent="bZPf7hXfJWl-ffso0nt_-3" vertex="1">
          <mxGeometry x="215" y="20" width="69" height="72" as="geometry" />
        </mxCell>
        <mxCell id="bZPf7hXfJWl-ffso0nt_-11" value="Private subnet" style="points=[[0,0],[0.25,0],[0.5,0],[0.75,0],[1,0],[1,0.25],[1,0.5],[1,0.75],[1,1],[0.75,1],[0.5,1],[0.25,1],[0,1],[0,0.75],[0,0.5],[0,0.25]];outlineConnect=0;gradientColor=none;html=1;whiteSpace=wrap;fontSize=12;fontStyle=0;container=1;pointerEvents=0;collapsible=0;recursiveResize=0;shape=mxgraph.aws4.group;grIcon=mxgraph.aws4.group_security_group;grStroke=0;strokeColor=#147EBA;fillColor=#E6F2F8;verticalAlign=top;align=left;spacingLeft=30;fontColor=#147EBA;dashed=0;" parent="bZPf7hXfJWl-ffso0nt_-3" vertex="1">
          <mxGeometry x="40" y="300" width="180" height="140" as="geometry" />
        </mxCell>
        <mxCell id="bZPf7hXfJWl-ffso0nt_-26" value="" style="outlineConnect=0;dashed=0;verticalLabelPosition=bottom;verticalAlign=top;align=center;html=1;shape=mxgraph.aws3.rds_db_instance;fillColor=#2E73B8;gradientColor=none;" parent="bZPf7hXfJWl-ffso0nt_-11" vertex="1">
          <mxGeometry x="66" y="37" width="49.5" height="66" as="geometry" />
        </mxCell>
        <mxCell id="bZPf7hXfJWl-ffso0nt_-12" value="Private subnet" style="points=[[0,0],[0.25,0],[0.5,0],[0.75,0],[1,0],[1,0.25],[1,0.5],[1,0.75],[1,1],[0.75,1],[0.5,1],[0.25,1],[0,1],[0,0.75],[0,0.5],[0,0.25]];outlineConnect=0;gradientColor=none;html=1;whiteSpace=wrap;fontSize=12;fontStyle=0;container=1;pointerEvents=0;collapsible=0;recursiveResize=0;shape=mxgraph.aws4.group;grIcon=mxgraph.aws4.group_security_group;grStroke=0;strokeColor=#147EBA;fillColor=#E6F2F8;verticalAlign=top;align=left;spacingLeft=30;fontColor=#147EBA;dashed=0;" parent="bZPf7hXfJWl-ffso0nt_-3" vertex="1">
          <mxGeometry x="280" y="300" width="180" height="140" as="geometry" />
        </mxCell>
        <mxCell id="bZPf7hXfJWl-ffso0nt_-27" value="" style="outlineConnect=0;dashed=0;verticalLabelPosition=bottom;verticalAlign=top;align=center;html=1;shape=mxgraph.aws3.rds_db_instance_read_replica;fillColor=#2E73B8;gradientColor=none;" parent="bZPf7hXfJWl-ffso0nt_-12" vertex="1">
          <mxGeometry x="66" y="37" width="49.5" height="66" as="geometry" />
        </mxCell>
        <mxCell id="bZPf7hXfJWl-ffso0nt_-15" value="Public subnet" style="points=[[0,0],[0.25,0],[0.5,0],[0.75,0],[1,0],[1,0.25],[1,0.5],[1,0.75],[1,1],[0.75,1],[0.5,1],[0.25,1],[0,1],[0,0.75],[0,0.5],[0,0.25]];outlineConnect=0;gradientColor=none;html=1;whiteSpace=wrap;fontSize=12;fontStyle=0;container=1;pointerEvents=0;collapsible=0;recursiveResize=0;shape=mxgraph.aws4.group;grIcon=mxgraph.aws4.group_security_group;grStroke=0;strokeColor=#248814;fillColor=#E9F3E6;verticalAlign=top;align=left;spacingLeft=30;fontColor=#248814;dashed=0;" parent="bZPf7hXfJWl-ffso0nt_-3" vertex="1">
          <mxGeometry x="40" y="140" width="180" height="140" as="geometry" />
        </mxCell>
        <mxCell id="bZPf7hXfJWl-ffso0nt_-19" value="" style="sketch=0;points=[[0,0,0],[0.25,0,0],[0.5,0,0],[0.75,0,0],[1,0,0],[0,1,0],[0.25,1,0],[0.5,1,0],[0.75,1,0],[1,1,0],[0,0.25,0],[0,0.5,0],[0,0.75,0],[1,0.25,0],[1,0.5,0],[1,0.75,0]];outlineConnect=0;fontColor=#232F3E;gradientColor=#F78E04;gradientDirection=north;fillColor=#D05C17;strokeColor=#ffffff;dashed=0;verticalLabelPosition=bottom;verticalAlign=top;align=center;html=1;fontSize=12;fontStyle=0;aspect=fixed;shape=mxgraph.aws4.resourceIcon;resIcon=mxgraph.aws4.ec2;" parent="bZPf7hXfJWl-ffso0nt_-15" vertex="1">
          <mxGeometry x="51" y="35" width="78" height="78" as="geometry" />
        </mxCell>
        <mxCell id="bZPf7hXfJWl-ffso0nt_-16" value="Public subnet" style="points=[[0,0],[0.25,0],[0.5,0],[0.75,0],[1,0],[1,0.25],[1,0.5],[1,0.75],[1,1],[0.75,1],[0.5,1],[0.25,1],[0,1],[0,0.75],[0,0.5],[0,0.25]];outlineConnect=0;gradientColor=none;html=1;whiteSpace=wrap;fontSize=12;fontStyle=0;container=1;pointerEvents=0;collapsible=0;recursiveResize=0;shape=mxgraph.aws4.group;grIcon=mxgraph.aws4.group_security_group;grStroke=0;strokeColor=#248814;fillColor=#E9F3E6;verticalAlign=top;align=left;spacingLeft=30;fontColor=#248814;dashed=0;" parent="bZPf7hXfJWl-ffso0nt_-3" vertex="1">
          <mxGeometry x="280" y="140" width="180" height="140" as="geometry" />
        </mxCell>
        <mxCell id="bZPf7hXfJWl-ffso0nt_-23" value="" style="sketch=0;points=[[0,0,0],[0.25,0,0],[0.5,0,0],[0.75,0,0],[1,0,0],[0,1,0],[0.25,1,0],[0.5,1,0],[0.75,1,0],[1,1,0],[0,0.25,0],[0,0.5,0],[0,0.75,0],[1,0.25,0],[1,0.5,0],[1,0.75,0]];outlineConnect=0;fontColor=#232F3E;gradientColor=#F78E04;gradientDirection=north;fillColor=#D05C17;strokeColor=#ffffff;dashed=0;verticalLabelPosition=bottom;verticalAlign=top;align=center;html=1;fontSize=12;fontStyle=0;aspect=fixed;shape=mxgraph.aws4.resourceIcon;resIcon=mxgraph.aws4.ec2;" parent="bZPf7hXfJWl-ffso0nt_-16" vertex="1">
          <mxGeometry x="51" y="35" width="78" height="78" as="geometry" />
        </mxCell>
        <mxCell id="quVSlrwfuQFlu-SDrQh5-1" value="" style="endArrow=classic;startArrow=classic;html=1;rounded=0;entryX=0.5;entryY=1;entryDx=0;entryDy=0;entryPerimeter=0;" edge="1" parent="bZPf7hXfJWl-ffso0nt_-3" source="bZPf7hXfJWl-ffso0nt_-26" target="bZPf7hXfJWl-ffso0nt_-19">
          <mxGeometry width="50" height="50" relative="1" as="geometry">
            <mxPoint x="105" y="315" as="sourcePoint" />
            <mxPoint x="155" y="265" as="targetPoint" />
          </mxGeometry>
        </mxCell>
        <mxCell id="quVSlrwfuQFlu-SDrQh5-2" value="" style="endArrow=classic;html=1;rounded=0;entryX=0.5;entryY=1;entryDx=0;entryDy=0;entryPerimeter=0;" edge="1" parent="bZPf7hXfJWl-ffso0nt_-3" source="bZPf7hXfJWl-ffso0nt_-27" target="bZPf7hXfJWl-ffso0nt_-23">
          <mxGeometry width="50" height="50" relative="1" as="geometry">
            <mxPoint x="350" y="320" as="sourcePoint" />
            <mxPoint x="400" y="270" as="targetPoint" />
          </mxGeometry>
        </mxCell>
        <mxCell id="quVSlrwfuQFlu-SDrQh5-6" value="" style="endArrow=none;html=1;rounded=0;edgeStyle=orthogonalEdgeStyle;entryX=0;entryY=0.5;entryDx=0;entryDy=0;entryPerimeter=0;exitX=0.5;exitY=0;exitDx=0;exitDy=0;exitPerimeter=0;" edge="1" parent="bZPf7hXfJWl-ffso0nt_-3" source="bZPf7hXfJWl-ffso0nt_-19" target="bZPf7hXfJWl-ffso0nt_-9">
          <mxGeometry width="50" height="50" relative="1" as="geometry">
            <mxPoint x="120" y="90" as="sourcePoint" />
            <mxPoint x="170" y="40" as="targetPoint" />
          </mxGeometry>
        </mxCell>
        <mxCell id="quVSlrwfuQFlu-SDrQh5-8" value="" style="endArrow=none;html=1;rounded=0;edgeStyle=orthogonalEdgeStyle;exitX=0.5;exitY=0;exitDx=0;exitDy=0;exitPerimeter=0;entryX=1;entryY=0.5;entryDx=0;entryDy=0;entryPerimeter=0;" edge="1" parent="bZPf7hXfJWl-ffso0nt_-3" source="bZPf7hXfJWl-ffso0nt_-23" target="bZPf7hXfJWl-ffso0nt_-9">
          <mxGeometry width="50" height="50" relative="1" as="geometry">
            <mxPoint x="375" y="85" as="sourcePoint" />
            <mxPoint x="420" y="35" as="targetPoint" />
          </mxGeometry>
        </mxCell>
        <mxCell id="quVSlrwfuQFlu-SDrQh5-20" value="" style="endArrow=classic;html=1;rounded=0;entryX=1;entryY=0.5;entryDx=0;entryDy=0;entryPerimeter=0;" edge="1" parent="bZPf7hXfJWl-ffso0nt_-3" source="bZPf7hXfJWl-ffso0nt_-27" target="bZPf7hXfJWl-ffso0nt_-26">
          <mxGeometry width="50" height="50" relative="1" as="geometry">
            <mxPoint x="315" y="575" as="sourcePoint" />
            <mxPoint x="365" y="525" as="targetPoint" />
          </mxGeometry>
        </mxCell>
        <mxCell id="quVSlrwfuQFlu-SDrQh5-10" value="eu-west-2" style="text;html=1;resizable=0;autosize=1;align=center;verticalAlign=middle;points=[];fillColor=none;strokeColor=none;rounded=0;" vertex="1" parent="bZPf7hXfJWl-ffso0nt_-1">
          <mxGeometry x="80" width="75" height="30" as="geometry" />
        </mxCell>
        <mxCell id="bZPf7hXfJWl-ffso0nt_-2" value="Region" style="points=[[0,0],[0.25,0],[0.5,0],[0.75,0],[1,0],[1,0.25],[1,0.5],[1,0.75],[1,1],[0.75,1],[0.5,1],[0.25,1],[0,1],[0,0.75],[0,0.5],[0,0.25]];outlineConnect=0;gradientColor=none;html=1;whiteSpace=wrap;fontSize=12;fontStyle=0;container=1;pointerEvents=0;collapsible=0;recursiveResize=0;shape=mxgraph.aws4.group;grIcon=mxgraph.aws4.group_region;strokeColor=#147EBA;fillColor=none;verticalAlign=top;align=left;spacingLeft=30;fontColor=#147EBA;dashed=1;" parent="1" vertex="1">
          <mxGeometry x="620" y="160" width="540" height="540" as="geometry" />
        </mxCell>
        <mxCell id="bZPf7hXfJWl-ffso0nt_-4" value="VPC" style="points=[[0,0],[0.25,0],[0.5,0],[0.75,0],[1,0],[1,0.25],[1,0.5],[1,0.75],[1,1],[0.75,1],[0.5,1],[0.25,1],[0,1],[0,0.75],[0,0.5],[0,0.25]];outlineConnect=0;gradientColor=none;html=1;whiteSpace=wrap;fontSize=12;fontStyle=0;container=1;pointerEvents=0;collapsible=0;recursiveResize=0;shape=mxgraph.aws4.group;grIcon=mxgraph.aws4.group_vpc;strokeColor=#248814;fillColor=none;verticalAlign=top;align=left;spacingLeft=30;fontColor=#AAB7B8;dashed=0;" parent="bZPf7hXfJWl-ffso0nt_-2" vertex="1">
          <mxGeometry x="20" y="40" width="500" height="480" as="geometry" />
        </mxCell>
        <mxCell id="bZPf7hXfJWl-ffso0nt_-7" value="Availability Zone" style="fillColor=none;strokeColor=#147EBA;dashed=1;verticalAlign=top;fontStyle=0;fontColor=#147EBA;" parent="bZPf7hXfJWl-ffso0nt_-4" vertex="1">
          <mxGeometry x="20" y="120" width="220" height="340" as="geometry" />
        </mxCell>
        <mxCell id="bZPf7hXfJWl-ffso0nt_-8" value="Availability Zone" style="fillColor=none;strokeColor=#147EBA;dashed=1;verticalAlign=top;fontStyle=0;fontColor=#147EBA;" parent="bZPf7hXfJWl-ffso0nt_-4" vertex="1">
          <mxGeometry x="260" y="120" width="220" height="340" as="geometry" />
        </mxCell>
        <mxCell id="bZPf7hXfJWl-ffso0nt_-10" value="" style="outlineConnect=0;dashed=0;verticalLabelPosition=bottom;verticalAlign=top;align=center;html=1;shape=mxgraph.aws3.application_load_balancer;fillColor=#F58536;gradientColor=none;" parent="bZPf7hXfJWl-ffso0nt_-4" vertex="1">
          <mxGeometry x="215.5" y="20" width="69" height="72" as="geometry" />
        </mxCell>
        <mxCell id="bZPf7hXfJWl-ffso0nt_-13" value="Private subnet" style="points=[[0,0],[0.25,0],[0.5,0],[0.75,0],[1,0],[1,0.25],[1,0.5],[1,0.75],[1,1],[0.75,1],[0.5,1],[0.25,1],[0,1],[0,0.75],[0,0.5],[0,0.25]];outlineConnect=0;gradientColor=none;html=1;whiteSpace=wrap;fontSize=12;fontStyle=0;container=1;pointerEvents=0;collapsible=0;recursiveResize=0;shape=mxgraph.aws4.group;grIcon=mxgraph.aws4.group_security_group;grStroke=0;strokeColor=#147EBA;fillColor=#E6F2F8;verticalAlign=top;align=left;spacingLeft=30;fontColor=#147EBA;dashed=0;" parent="bZPf7hXfJWl-ffso0nt_-4" vertex="1">
          <mxGeometry x="40" y="300" width="180" height="140" as="geometry" />
        </mxCell>
        <mxCell id="bZPf7hXfJWl-ffso0nt_-28" value="" style="outlineConnect=0;dashed=0;verticalLabelPosition=bottom;verticalAlign=top;align=center;html=1;shape=mxgraph.aws3.rds_db_instance_read_replica;fillColor=#2E73B8;gradientColor=none;" parent="bZPf7hXfJWl-ffso0nt_-13" vertex="1">
          <mxGeometry x="66" y="37" width="49.5" height="66" as="geometry" />
        </mxCell>
        <mxCell id="bZPf7hXfJWl-ffso0nt_-14" value="Private subnet" style="points=[[0,0],[0.25,0],[0.5,0],[0.75,0],[1,0],[1,0.25],[1,0.5],[1,0.75],[1,1],[0.75,1],[0.5,1],[0.25,1],[0,1],[0,0.75],[0,0.5],[0,0.25]];outlineConnect=0;gradientColor=none;html=1;whiteSpace=wrap;fontSize=12;fontStyle=0;container=1;pointerEvents=0;collapsible=0;recursiveResize=0;shape=mxgraph.aws4.group;grIcon=mxgraph.aws4.group_security_group;grStroke=0;strokeColor=#147EBA;fillColor=#E6F2F8;verticalAlign=top;align=left;spacingLeft=30;fontColor=#147EBA;dashed=0;" parent="bZPf7hXfJWl-ffso0nt_-4" vertex="1">
          <mxGeometry x="280" y="300" width="180" height="140" as="geometry" />
        </mxCell>
        <mxCell id="bZPf7hXfJWl-ffso0nt_-29" value="" style="outlineConnect=0;dashed=0;verticalLabelPosition=bottom;verticalAlign=top;align=center;html=1;shape=mxgraph.aws3.rds_db_instance_read_replica;fillColor=#2E73B8;gradientColor=none;" parent="bZPf7hXfJWl-ffso0nt_-14" vertex="1">
          <mxGeometry x="66" y="37" width="49.5" height="66" as="geometry" />
        </mxCell>
        <mxCell id="bZPf7hXfJWl-ffso0nt_-17" value="Public subnet" style="points=[[0,0],[0.25,0],[0.5,0],[0.75,0],[1,0],[1,0.25],[1,0.5],[1,0.75],[1,1],[0.75,1],[0.5,1],[0.25,1],[0,1],[0,0.75],[0,0.5],[0,0.25]];outlineConnect=0;gradientColor=none;html=1;whiteSpace=wrap;fontSize=12;fontStyle=0;container=1;pointerEvents=0;collapsible=0;recursiveResize=0;shape=mxgraph.aws4.group;grIcon=mxgraph.aws4.group_security_group;grStroke=0;strokeColor=#248814;fillColor=#E9F3E6;verticalAlign=top;align=left;spacingLeft=30;fontColor=#248814;dashed=0;" parent="bZPf7hXfJWl-ffso0nt_-4" vertex="1">
          <mxGeometry x="40" y="140" width="180" height="140" as="geometry" />
        </mxCell>
        <mxCell id="bZPf7hXfJWl-ffso0nt_-21" value="" style="sketch=0;points=[[0,0,0],[0.25,0,0],[0.5,0,0],[0.75,0,0],[1,0,0],[0,1,0],[0.25,1,0],[0.5,1,0],[0.75,1,0],[1,1,0],[0,0.25,0],[0,0.5,0],[0,0.75,0],[1,0.25,0],[1,0.5,0],[1,0.75,0]];outlineConnect=0;fontColor=#232F3E;gradientColor=#F78E04;gradientDirection=north;fillColor=#D05C17;strokeColor=#ffffff;dashed=0;verticalLabelPosition=bottom;verticalAlign=top;align=center;html=1;fontSize=12;fontStyle=0;aspect=fixed;shape=mxgraph.aws4.resourceIcon;resIcon=mxgraph.aws4.ec2;" parent="bZPf7hXfJWl-ffso0nt_-17" vertex="1">
          <mxGeometry x="51" y="31" width="78" height="78" as="geometry" />
        </mxCell>
        <mxCell id="quVSlrwfuQFlu-SDrQh5-3" value="" style="endArrow=classic;html=1;rounded=0;entryX=0.5;entryY=1;entryDx=0;entryDy=0;entryPerimeter=0;exitX=0.5;exitY=0.02;exitDx=0;exitDy=0;exitPerimeter=0;" edge="1" parent="bZPf7hXfJWl-ffso0nt_-17" source="bZPf7hXfJWl-ffso0nt_-28">
          <mxGeometry width="50" height="50" relative="1" as="geometry">
            <mxPoint x="90.78846153846143" y="192" as="sourcePoint" />
            <mxPoint x="90.25" y="108" as="targetPoint" />
          </mxGeometry>
        </mxCell>
        <mxCell id="bZPf7hXfJWl-ffso0nt_-18" value="Public subnet" style="points=[[0,0],[0.25,0],[0.5,0],[0.75,0],[1,0],[1,0.25],[1,0.5],[1,0.75],[1,1],[0.75,1],[0.5,1],[0.25,1],[0,1],[0,0.75],[0,0.5],[0,0.25]];outlineConnect=0;gradientColor=none;html=1;whiteSpace=wrap;fontSize=12;fontStyle=0;container=1;pointerEvents=0;collapsible=0;recursiveResize=0;shape=mxgraph.aws4.group;grIcon=mxgraph.aws4.group_security_group;grStroke=0;strokeColor=#248814;fillColor=#E9F3E6;verticalAlign=top;align=left;spacingLeft=30;fontColor=#248814;dashed=0;" parent="bZPf7hXfJWl-ffso0nt_-4" vertex="1">
          <mxGeometry x="280" y="140" width="180" height="140" as="geometry" />
        </mxCell>
        <mxCell id="bZPf7hXfJWl-ffso0nt_-22" value="" style="sketch=0;points=[[0,0,0],[0.25,0,0],[0.5,0,0],[0.75,0,0],[1,0,0],[0,1,0],[0.25,1,0],[0.5,1,0],[0.75,1,0],[1,1,0],[0,0.25,0],[0,0.5,0],[0,0.75,0],[1,0.25,0],[1,0.5,0],[1,0.75,0]];outlineConnect=0;fontColor=#232F3E;gradientColor=#F78E04;gradientDirection=north;fillColor=#D05C17;strokeColor=#ffffff;dashed=0;verticalLabelPosition=bottom;verticalAlign=top;align=center;html=1;fontSize=12;fontStyle=0;aspect=fixed;shape=mxgraph.aws4.resourceIcon;resIcon=mxgraph.aws4.ec2;" parent="bZPf7hXfJWl-ffso0nt_-18" vertex="1">
          <mxGeometry x="51" y="35" width="78" height="78" as="geometry" />
        </mxCell>
        <mxCell id="quVSlrwfuQFlu-SDrQh5-4" value="" style="endArrow=classic;html=1;rounded=0;" edge="1" parent="bZPf7hXfJWl-ffso0nt_-4">
          <mxGeometry width="50" height="50" relative="1" as="geometry">
            <mxPoint x="370.03846153846143" y="339" as="sourcePoint" />
            <mxPoint x="370" y="250" as="targetPoint" />
          </mxGeometry>
        </mxCell>
        <mxCell id="quVSlrwfuQFlu-SDrQh5-12" value="" style="endArrow=none;html=1;rounded=0;edgeStyle=orthogonalEdgeStyle;exitX=0.5;exitY=0;exitDx=0;exitDy=0;exitPerimeter=0;entryX=0;entryY=0.5;entryDx=0;entryDy=0;entryPerimeter=0;" edge="1" parent="bZPf7hXfJWl-ffso0nt_-4" source="bZPf7hXfJWl-ffso0nt_-21" target="bZPf7hXfJWl-ffso0nt_-10">
          <mxGeometry width="50" height="50" relative="1" as="geometry">
            <mxPoint x="130" y="-110" as="sourcePoint" />
            <mxPoint x="180" y="-160" as="targetPoint" />
          </mxGeometry>
        </mxCell>
        <mxCell id="quVSlrwfuQFlu-SDrQh5-13" value="" style="endArrow=none;html=1;rounded=0;edgeStyle=orthogonalEdgeStyle;entryX=0.5;entryY=0;entryDx=0;entryDy=0;entryPerimeter=0;" edge="1" parent="bZPf7hXfJWl-ffso0nt_-4" source="bZPf7hXfJWl-ffso0nt_-10" target="bZPf7hXfJWl-ffso0nt_-22">
          <mxGeometry width="50" height="50" relative="1" as="geometry">
            <mxPoint x="325" y="-80" as="sourcePoint" />
            <mxPoint x="375" y="-130" as="targetPoint" />
          </mxGeometry>
        </mxCell>
        <mxCell id="quVSlrwfuQFlu-SDrQh5-11" value="me-central-1" style="text;html=1;resizable=0;autosize=1;align=center;verticalAlign=middle;points=[];fillColor=none;strokeColor=none;rounded=0;" vertex="1" parent="bZPf7hXfJWl-ffso0nt_-2">
          <mxGeometry x="75" width="90" height="30" as="geometry" />
        </mxCell>
        <mxCell id="quVSlrwfuQFlu-SDrQh5-14" value="" style="endArrow=none;html=1;rounded=0;" edge="1" parent="1">
          <mxGeometry width="50" height="50" relative="1" as="geometry">
            <mxPoint x="310" y="120" as="sourcePoint" />
            <mxPoint x="890" y="120" as="targetPoint" />
          </mxGeometry>
        </mxCell>
        <mxCell id="quVSlrwfuQFlu-SDrQh5-15" value="" style="endArrow=none;html=1;rounded=0;exitX=0.5;exitY=0;exitDx=0;exitDy=0;exitPerimeter=0;" edge="1" parent="1" source="bZPf7hXfJWl-ffso0nt_-9">
          <mxGeometry width="50" height="50" relative="1" as="geometry">
            <mxPoint x="330" y="90" as="sourcePoint" />
            <mxPoint x="310" y="120" as="targetPoint" />
          </mxGeometry>
        </mxCell>
        <mxCell id="quVSlrwfuQFlu-SDrQh5-16" value="" style="endArrow=none;html=1;rounded=0;exitX=0.5;exitY=0;exitDx=0;exitDy=0;exitPerimeter=0;" edge="1" parent="1" source="bZPf7hXfJWl-ffso0nt_-10">
          <mxGeometry width="50" height="50" relative="1" as="geometry">
            <mxPoint x="920" y="120" as="sourcePoint" />
            <mxPoint x="890" y="120" as="targetPoint" />
          </mxGeometry>
        </mxCell>
        <mxCell id="quVSlrwfuQFlu-SDrQh5-18" value="" style="endArrow=none;html=1;rounded=0;entryX=0.5;entryY=1;entryDx=0;entryDy=0;entryPerimeter=0;" edge="1" parent="1" target="PSsWQGHh_uAdmonaR9B--28">
          <mxGeometry width="50" height="50" relative="1" as="geometry">
            <mxPoint x="600" y="120" as="sourcePoint" />
            <mxPoint x="255" y="45" as="targetPoint" />
          </mxGeometry>
        </mxCell>
        <mxCell id="quVSlrwfuQFlu-SDrQh5-21" value="" style="endArrow=classic;html=1;rounded=0;exitX=0.5;exitY=0.99;exitDx=0;exitDy=0;exitPerimeter=0;edgeStyle=orthogonalEdgeStyle;entryX=1;entryY=0.89;entryDx=0;entryDy=0;entryPerimeter=0;" edge="1" parent="1" source="bZPf7hXfJWl-ffso0nt_-28" target="bZPf7hXfJWl-ffso0nt_-26">
          <mxGeometry width="50" height="50" relative="1" as="geometry">
            <mxPoint x="770" y="800" as="sourcePoint" />
            <mxPoint x="820" y="750" as="targetPoint" />
            <Array as="points">
              <mxPoint x="771" y="740" />
              <mxPoint x="216" y="740" />
            </Array>
          </mxGeometry>
        </mxCell>
        <mxCell id="quVSlrwfuQFlu-SDrQh5-22" value="" style="endArrow=classic;html=1;rounded=0;exitX=0.5;exitY=0.99;exitDx=0;exitDy=0;exitPerimeter=0;edgeStyle=orthogonalEdgeStyle;entryX=0;entryY=0.89;entryDx=0;entryDy=0;entryPerimeter=0;" edge="1" parent="1" source="bZPf7hXfJWl-ffso0nt_-29" target="bZPf7hXfJWl-ffso0nt_-26">
          <mxGeometry width="50" height="50" relative="1" as="geometry">
            <mxPoint x="870" y="775" as="sourcePoint" />
            <mxPoint x="920" y="725" as="targetPoint" />
            <Array as="points">
              <mxPoint x="1011" y="760" />
              <mxPoint x="166" y="760" />
            </Array>
          </mxGeometry>
        </mxCell>
        <mxCell id="quVSlrwfuQFlu-SDrQh5-25" value="AWS Cloud" style="points=[[0,0],[0.25,0],[0.5,0],[0.75,0],[1,0],[1,0.25],[1,0.5],[1,0.75],[1,1],[0.75,1],[0.5,1],[0.25,1],[0,1],[0,0.75],[0,0.5],[0,0.25]];outlineConnect=0;gradientColor=none;html=1;whiteSpace=wrap;fontSize=12;fontStyle=0;container=1;pointerEvents=0;collapsible=0;recursiveResize=0;shape=mxgraph.aws4.group;grIcon=mxgraph.aws4.group_aws_cloud_alt;strokeColor=#232F3E;fillColor=none;verticalAlign=top;align=left;spacingLeft=30;fontColor=#232F3E;dashed=0;" vertex="1" parent="1">
          <mxGeometry width="1180" height="980" as="geometry" />
        </mxCell>
        <mxCell id="quVSlrwfuQFlu-SDrQh5-26" value="" style="sketch=0;points=[[0,0,0],[0.25,0,0],[0.5,0,0],[0.75,0,0],[1,0,0],[0,1,0],[0.25,1,0],[0.5,1,0],[0.75,1,0],[1,1,0],[0,0.25,0],[0,0.5,0],[0,0.75,0],[1,0.25,0],[1,0.5,0],[1,0.75,0]];outlineConnect=0;fontColor=#232F3E;gradientColor=#60A337;gradientDirection=north;fillColor=#277116;strokeColor=#ffffff;dashed=0;verticalLabelPosition=bottom;verticalAlign=top;align=center;html=1;fontSize=12;fontStyle=0;aspect=fixed;shape=mxgraph.aws4.resourceIcon;resIcon=mxgraph.aws4.s3;" vertex="1" parent="quVSlrwfuQFlu-SDrQh5-25">
          <mxGeometry x="560" y="820" width="78" height="78" as="geometry" />
        </mxCell>
        <mxCell id="quVSlrwfuQFlu-SDrQh5-27" value="" style="endArrow=classic;startArrow=classic;html=1;rounded=0;edgeStyle=orthogonalEdgeStyle;entryX=0;entryY=0.5;entryDx=0;entryDy=0;entryPerimeter=0;exitX=0;exitY=0.5;exitDx=0;exitDy=0;exitPerimeter=0;" edge="1" parent="1" source="quVSlrwfuQFlu-SDrQh5-26" target="bZPf7hXfJWl-ffso0nt_-19">
          <mxGeometry width="50" height="50" relative="1" as="geometry">
            <mxPoint x="45" y="855" as="sourcePoint" />
            <mxPoint x="95" y="805" as="targetPoint" />
            <Array as="points">
              <mxPoint x="90" y="859" />
              <mxPoint x="90" y="414" />
            </Array>
          </mxGeometry>
        </mxCell>
        <mxCell id="quVSlrwfuQFlu-SDrQh5-28" value="" style="endArrow=classic;startArrow=classic;html=1;rounded=0;edgeStyle=orthogonalEdgeStyle;exitX=1;exitY=0.5;exitDx=0;exitDy=0;exitPerimeter=0;entryX=1;entryY=0.5;entryDx=0;entryDy=0;entryPerimeter=0;" edge="1" parent="1" source="quVSlrwfuQFlu-SDrQh5-26" target="bZPf7hXfJWl-ffso0nt_-22">
          <mxGeometry width="50" height="50" relative="1" as="geometry">
            <mxPoint x="885" y="910" as="sourcePoint" />
            <mxPoint x="935" y="860" as="targetPoint" />
            <Array as="points">
              <mxPoint x="1110" y="859" />
              <mxPoint x="1110" y="414" />
            </Array>
          </mxGeometry>
        </mxCell>
        <mxCell id="quVSlrwfuQFlu-SDrQh5-29" value="" style="endArrow=classic;startArrow=classic;html=1;rounded=0;edgeStyle=orthogonalEdgeStyle;entryX=0;entryY=0.25;entryDx=0;entryDy=0;entryPerimeter=0;exitX=1;exitY=0.5;exitDx=0;exitDy=0;exitPerimeter=0;" edge="1" parent="1" source="bZPf7hXfJWl-ffso0nt_-23" target="quVSlrwfuQFlu-SDrQh5-26">
          <mxGeometry width="50" height="50" relative="1" as="geometry">
            <mxPoint x="355" y="955" as="sourcePoint" />
            <mxPoint x="405" y="905" as="targetPoint" />
            <Array as="points">
              <mxPoint x="530" y="414" />
              <mxPoint x="530" y="840" />
            </Array>
          </mxGeometry>
        </mxCell>
        <mxCell id="quVSlrwfuQFlu-SDrQh5-30" value="" style="endArrow=classic;startArrow=classic;html=1;rounded=0;edgeStyle=orthogonalEdgeStyle;entryX=1;entryY=0.25;entryDx=0;entryDy=0;entryPerimeter=0;exitX=0;exitY=0.5;exitDx=0;exitDy=0;exitPerimeter=0;" edge="1" parent="1" source="bZPf7hXfJWl-ffso0nt_-21" target="quVSlrwfuQFlu-SDrQh5-26">
          <mxGeometry width="50" height="50" relative="1" as="geometry">
            <mxPoint x="390" y="970" as="sourcePoint" />
            <mxPoint x="440" y="920" as="targetPoint" />
            <Array as="points">
              <mxPoint x="670" y="410" />
              <mxPoint x="670" y="840" />
            </Array>
          </mxGeometry>
        </mxCell>
      </root>
    </mxGraphModel>
  </diagram>
</mxfile>
